<svg xmlns="http://www.w3.org/2000/svg" viewBox="0 0 1400 400"><path d="M414.74 247.19c16.89 35.06-22.55 69.67-51.24 48.46a3.83 3.83 0 0 0-5 .41 28.62 28.62 0 0 1-20.38 8.5c-10.92 0-15.79-5.68-20.57-7.28-9.25-3.1-27.72-3.39-55.28-7.88-53.93-8.78-101.75-55.4-80.34-112.7 15.8-42.22 38.82-81.26 99.75-81.26 56.4 0 89.27 42.63 110 96.82 3.48 9.08 15.24 13.42 23.48 22.57 7.49 8.32 7.51 20.52.22 28a3.83 3.83 0 0 0-.64 4.36z" fill="#27212b"/><path d="M406 231.59c-4.69 7.16-17.66-1.24-13-8.41s17.69 1.25 13 8.41zm-32 46.48c-5.48-4.57-9.2-17.39-18-23.82-21.78-15.95-38-5.25-27.34 7.12 5.08 5.92 9.7 4.69 14.36 8.92 7.2 6.55 1.12 14.41-5.47 13.94-3.72-.23-5.89-3.68-13.55-6.23-12.42-4.14-29.9-4-58.48-8.7-38.83-6.3-81.79-39.42-64.52-85.55 16.07-42.87 34.89-68 80.73-68 60.48 0 75.72 49.93 88.13 74.55 5.8 11.45 8 9.28 12.8 15.91 4.34 6 .49 16.32-8.16 13.45-19-6.34-27.4 9.65-8.25 22.34 5.11 3.4 21 5.35 26.17 8.77 19.07 12.61-1.42 41.47-18.42 27.3zm-75.22-105.82c4.14-3.47 12.5-3.45 16.56 0 3.89 3.38 9.13-2.58 5.13-6-7-6-19.8-6-26.8 0-3.95 3.43 1.19 9.35 5.11 6zm-55.25-6c-7-6-19.8-6-26.8 0-4 3.44 1.19 9.36 5.11 6 4.14-3.47 12.54-3.45 16.6 0 3.88 3.39 9.1-2.57 5.09-6.01zm40.66 19.14a1.3 1.3 0 0 0-1.3-1.3H249.6a1.3 1.3 0 0 0-1.23 1.37 18 18 0 0 0 35.82 0z" fill="#fff"/><path d="M318 196.18l-4.59-5.87c-7.13 9.1-5.61 8.95-12.64 0l-4.59 5.87a2.19 2.19 0 0 1-3.46-2.7c8.94-11.49 7-11.69 14.37-2.23 7.19-9.23 5.28-9.43 14.38 2.23a2.2 2.2 0 0 1-3.47 2.7zm-77.86-2.71C231 181.79 233 182 225.76 191.23c-7.38-9.46-5.38-9.26-14.38 2.23a2.2 2.2 0 0 0 3.47 2.71l4.59-5.87c7 8.95 5.51 9.1 12.64 0l4.63 5.87a2.2 2.2 0 0 0 3.43-2.7z" fill="#ff4367"/><path d="M584.16 246.1c-.14 5.82-16.73 27.21-26.71 26.15-15.83-1.68-45.63-42.56-45.63-42.56s3.65 29.08 1 37.57c-3 9.58-39 8.29-39.65 2.74-3.44-27.15-6.35-144.52-2.55-148.07 3.13-2.93 38.75-4.33 40.15 1.43 1.82 7.48 0 42.39 0 42.39s32-40.14 43.62-43.6c4.11-1.23 29.1 23.91 28.39 28.39-1.33 8.41-47.08 47.07-47.08 47.07s48.67 39.23 48.46 48.49zm129.68-121.68c2.57 3.93 16.87 104.8-9.94 135.79-15.34 17.73-69.26 19.56-88.67-.4-26.59-27.33-13.65-132.78-10.94-135.9 3.94-4.51 31.88-4.08 38.74.5s-11.62 106.48 16.18 106.48 9-99.8 15.19-106.48c6.82-7.36 37.65-2.75 39.44.01zm136.21.58c2.08 4.61 5.33 29-.12 35.61-3.19 3.89-37.18 2.6-37.18 2.6s12.07 92 7.68 102.8c-3.79 9.29-35.66 8.25-40.67 4.69-9.19-6.51-6.33-105.4-6.33-105.4s-31.3 8.07-36.5-.07c-3.76-5.88-6.33-33.87-1.42-37.63 9.49-7.29 109.16-14.55 114.54-2.6zm58.42 89.93c.19 7.38.78 15.19.57 22.72 13.72-3 61.74-3.28 65 2.25 3.54 6 5.12 27 .77 31.76-3.33 3.65-100.26 2.49-101.66-2.86-8.21-31.47-7.81-130.8-.71-144.18 3.18-6 96.13-4.87 99 1.76 1.85 4.24 5.48 27.1.29 33.79-4.3 5.54-51.67 2.3-64.83 1.15.55 6.2.69 15.65.75 20.57 0 0 49.67-5.84 53 1.32 3.25 6.92 6.6 23.81 1.48 31-3.93 5.56-53.66.72-53.66.72z" fill="#ff4367"/><path d="M1035.09 269.86c-3.35 3.82-27.88 4.94-31.56.64-3.21-3.76-4.48-27.69 0-30.92 3.4-2.45 27.07-3.49 30.28-.64 4.38 3.9 4.84 26.86 1.28 30.92zm90.2-89.44c3.31 4.55 6.42 59.36-5.62 79-11.45 18.73-46.74 16.95-58.83 2.42-2-2.45-.62-21.56 7.56-23.06 7.82-1.42 15.79 14.78 28.83 3.73 10.57-9 5.31-39.43 5.31-39.43s-31 2.71-34.17-3.79c-4.1-8.25-2.89-18.47-.35-21.3 3.82-4.22 51.75-5.16 57.27 2.43zm50.09 21.29c-3.23 2.93-1.83 8.08.95 9.8 8.61 5.3 30.12.3 38 6.65 12.44 10.06 11.43 38.36.09 47.25-13.54 10.61-60.07 10.06-68.73-.65-3.62-4.48-3.58-18.28 3.45-19.58 19.07-3.51 28.95 6.16 42.8 1.56 3.74-1.24 3.8-5.4 2-8.2-4.59-7.15-27.83-4.43-37.1-8.46-16.28-7.07-16.7-34.71-5.9-47.46 8.33-9.83 54.53-9.76 64.56-1.56 5.49 4.48 4.24 17.5-1.82 21.17-9.25 5.59-31.76-6.42-38.3-.52z" fill="#27212b"/></svg>