<?xml version="1.0" encoding="utf-8"?>
<svg version="1.1" xmlns="http://www.w3.org/2000/svg" viewBox="0 0 600 600">
	<path id="rectangle" class="st0" d="M559,597.4H302.1H43.6c-21,0-38-17-38-38V408.8V223.6V44c0-21,17-38,38-38h105.6H300h160.3H559
		c21,0,38,17,38,38v184v331.4C597,580.4,580,597.4,559,597.4z"/>
	<path id="star" d="M302.1,17.9c16,29,81.4,147.7,98.2,178.2c31.1,6,62.3,11.9,93.4,17.9c35.5,6.8,71,13.6,106.5,20.4
		c-46.4,49.5-92.7,99-139.1,148.5c1.1,8.5,6.7,53.4,12.4,99.1c5.7,45.3,11.4,91.4,12.9,102.9c-36-16.9-158.8-74.5-184.2-86.4
		c-28.5,13.4-151.3,71-184.2,86.4c0.4-3.2,13.3-106.6,13.3-106.6s10.1-81,11.9-95.3C96.8,333.5,50.4,284,4,234.5
		c34.4-6.6,68.8-13.2,103.3-19.8c32.2-6.2,64.4-12.3,96.5-18.5C221,165.1,286.5,46.2,302.1,17.9z"/>
</svg>
