<?xml version="1.0" encoding="utf-8"?>
<svg version="1.1" id="complex-morph-example" xmlns="http://www.w3.org/2000/svg" viewBox="0 0 513 513">
	<path id="symbol-left" d="M155.9,333.4h-55.6c-3.4,0-5.9-1.5-7.3-3.8c-1.5-2.4-1.5-5.5,0-8.5l59.1-104.3c0.1-0.1,0.1-0.2,0-0.3
		l-37.6-65.1c-1.6-3.1-1.8-6.2-0.3-8.5c1.4-2.3,4.2-3.5,7.6-3.5h55.6c8.5,0,12.7,5.5,15.5,10.4c0,0,38,66.3,38.2,66.7
		c-2.3,4-60.1,106.2-60.1,106.2C168.2,327.8,164.2,333.4,155.9,333.4z"/>
	<path id="symbol-left-clone" class="st0" d="M155.9,333.4h-55.6c-3.4,0-5.9-1.5-7.3-3.8c-1.5-2.4-1.5-5.5,0-8.5l59.1-104.3
		c0.1-0.1,0.1-0.2,0-0.3l-37.6-65.1c-1.6-3.1-1.8-6.2-0.3-8.5c1.4-2.3,4.2-3.5,7.6-3.5h55.6c8.5,0,12.7,5.5,15.5,10.4
		c0,0,38,66.3,38.2,66.7c-2.3,4-60.1,106.2-60.1,106.2C168.2,327.8,164.2,333.4,155.9,333.4z"/>
	<path id="symbol-right" class="st0" d="M419,75.3L295.8,293.1c-0.1,0.1-0.1,0.3,0,0.4l78.4,143.3c1.6,3.1,1.6,6.2,0.1,8.6
		c-1.4,2.3-4,3.6-7.4,3.6h-55.6c-8.5,0-12.8-5.7-15.5-10.6c0,0-78.8-144.6-79.1-145c3.9-7,123.8-219.5,123.8-219.5
		c3-5.4,6.6-10.6,14.9-10.6h56.2c3.4,0,6,1.3,7.4,3.6C420.5,69.1,420.5,72.2,419,75.3L419,75.3z"/>
	<path id="eye-right" class="st0" d="M352,128c2.6,0,5,0.5,7.4,1.3c2.3,0.8,4.5,2,6.6,3.6c10.6,7.8,18,24.2,18,43.1
		c0,16.2-5.3,30.5-13.5,39.2c-3.1,3.3-6.6,5.8-10.5,7.3c-2.6,1-5.3,1.5-8,1.5c-4,0-7.8-1.1-11.3-3.1c-2.7-1.6-5.3-3.7-7.6-6.2
		c-7.9-8.7-13-22.8-13-38.7c0-19.2,7.5-35.7,18.4-43.4c1.9-1.4,4-2.5,6.1-3.2C346.9,128.5,349.4,128,352,128z"/>
	<path id="eye-left" class="st0" d="M176,156c10.4,0,19.7,1.4,27.5,3.9c14.5,4.7,23.5,13.4,23.5,24.8c0,3.7,1.9,21.5-0.1,24.8
		c-3.3-5.5-9.2-10.3-16.7-13.9c-5.6-2.7-12.2-4.8-19.4-6c-4.7-0.8-9.6-1.2-14.7-1.2c-8.9,0-17.3,1.3-24.7,3.5
		c-12.2,3.7-21.6,10-26.3,17.6c-2-3.3-0.1-21.1-0.1-24.8c0-11.3,8.8-19.9,23-24.6c3.7-1.2,7.8-2.2,12.2-2.9
		C165.1,156.4,170.4,156,176,156z"/>
	<path id="mouth" d="M250.2,416c-42.9,0-82-16.6-111.5-43.9c-7-6.5-13.5-13.6-19.4-21.2c-3.8-4.9-7.3-10-10.6-15.4
		c5.6,4.4,11.9,8.2,18.7,11.5c7.1,3.4,14.8,6.2,23,8.4c33.9,9.2,76.7,8.9,120.9,0.1c47.2-9.3,87.3-26.8,114.5-50.3
		c6-5.1,11.3-10.6,16-16.3c5.6-6.9,10.3-14.2,13.8-21.8c-1.2,9.2-3.1,18.2-5.7,26.9c-2.6,8.8-5.9,17.3-9.7,25.5
		C373.1,376.7,316.1,416,250.2,416L250.2,416z"/>

	<path id="rectangle-container" class="st2" d="M426.7,0H85.3C38.4,0,0,38.4,0,85.3v341.3c0,47,38.4,85.3,85.3,85.3h341.3
		c46.9,0,85.3-38.4,85.3-85.3V85.3C512,38.4,473.6,0,426.7,0z"/>
	<path id="circle-container" class="st0" d="M0,256c0,100.9,59.8,165.3,72,177.9c11.2,11.6,77.7,78.1,184,78.1
		c14.5,0,115.8-1.7,190.7-85.3C510.1,356,512,274.1,512,256c0-18.9-2.1-96.7-61-165.9C375.7,1.8,269.4,0,256,0
		C241,0,141.3,1.7,66.6,83.7C1.9,154.8,0,237.9,0,256z"/>
</svg>
