<?xml version="1.0" encoding="utf-8"?>
<svg version="1.1" id="multi-morph-example" viewBox="0 0 550 550">
	<path id="w21" class="st0" d="M192,470.9L0.2,444.6v-98.7V287H108h84V470.9z"/>
	<path id="w22" class="st0" d="M480,288l-0.1,224l-138.7-19.5L224,476V288h128H480z"/>
	<path id="w23" class="st0" d="M0.2,256L0,100l99.5-13.5L192,73.9V256H87H0.2z"/>
	<path id="w24" class="st0" d="M224,69.2l147.7-21.5L479.9,32v224H352H224V69.2z"/>
	<path id="w11" class="st1" d="M128.2,237.8c-44.1,0-78.7,18.7-83.3,20.6L0,414.1c30.9-11.4,58.1-17,83.1-17
		c40.4,0,69.8,15.1,94,30.7c11.5-39,39-133,47.2-161.2C205.7,254.8,176.7,237.8,128.2,237.8z"/>
	<path id="w12" class="st2" d="M264.2,295.5L219,452.6c13.4,7.7,58.5,32,93.1,32c27.9,0,59.1-7.1,95.4-21.9l43.2-151
		c-29.3,9.5-57.4,14.3-83.7,14.3C318.9,326,285.4,310.5,264.2,295.5z"/>
	<path id="w13" class="st3" d="M146.4,184.4c38.6,0.4,67.1,15.1,90.7,30.3L283.5,56c-9.8-5.6-41.4-27.7-92.5-28.6
		c-25.9,0.5-54.2,7-86.4,19.9L60.3,202.6C92.7,190.3,120.6,184.4,146.4,184.4L146.4,184.4L146.4,184.4z"/>
	<path id="w14" class="st4" d="M512,99.1c-29.4,11.4-58.1,17.2-85.5,17.2c-45.8,0-79.6-15.9-101.5-31.2l-46,159.1
		c30.9,19.9,64.1,29.9,99.1,29.9c43.1,0,89.5-21.9,89.5-21.9L512,99.1z"/>
	<path id="s21" d="M192,471.9L0.2,445.6V288h87.3h52.3H192V471.9z"/>
	<path id="s22" class="st0" d="M480,288l-0.1,224L224,476V288H480z"/>
	<path id="s23" class="st0" d="M0.2,256L0,100l88.7-12.1l103.3-14V256H0.2z"/>
	<path id="s24" d="M224,69.2L479.9,32v224H354.7h-69.4H224V69.2z"/>
	<path id="s11" class="st1" d="M128.2,237.8c-44.1,0-78.7,18.7-83.3,20.6L0,414.1c30.9-11.4,58.1-17,83.1-17
		c40.4,0,69.8,15.1,94,30.7c11.5-39,39-133,47.2-161.2C205.7,254.8,176.7,237.8,128.2,237.8z"/>
	<path id="s12" class="st5" d="M264.2,295.5L219,452.6c13.4,7.7,58.5,32,93.1,32c27.9,0,59.1-7.1,95.4-21.9l43.2-151
		c-29.3,9.5-57.4,14.4-83.7,14.3C310.6,325.9,276,303.9,264.2,295.5z"/>
	<path id="s13" class="st6" d="M146.4,184.4c38.6,0.4,67.1,15.1,90.7,30.3L283.5,56c-6.6-3.7-45.7-28.6-92.5-28.6
		c-25.9,0.5-54.2,7-86.4,19.9L60.3,202.6C92.7,190.3,120.6,184.4,146.4,184.4z"/>
	<path id="s14" class="st4" d="M512,99.1c-29.4,11.4-58.1,17.2-85.5,17.2c-45.8,0-79.6-15.9-101.5-31.2l-46,159.1
		c30.9,19.9,64.1,29.9,99.1,29.9c43.1,0,89.5-21.9,89.5-21.9L512,99.1z"/>
</svg>
