<?xml version="1.0" encoding="utf-8"?>
<!-- Generator: Adobe Illustrator 23.0.0, SVG Export Plug-In . SVG Version: 6.00 Build 0)  -->
<svg version="1.1" id="Layer_1" xmlns="http://www.w3.org/2000/svg" xmlns:xlink="http://www.w3.org/1999/xlink" x="0px" y="0px"
	 viewBox="0 0 600 600" style="enable-background:new 0 0 600 600;" xml:space="preserve">
<style type="text/css">
	.st0{display:none;}
</style>
<path id="rectangle" class="st0" d="M559,597.4H302.1H43.6c-21,0-38-17-38-38V300V44c0-21,17-38,38-38H300h259c21,0,38,17,38,38
	v257.7v257.7C597,580.4,580,597.4,559,597.4z"/>
<path id="star" d="M302.1,17.9c16,29,81.4,147.7,98.2,178.2c13.7,2.6,47.3,9.1,83.5,16c46.1,8.8,96.5,18.5,116.4,22.3
	c-25.1,26.7-117.8,125.7-139.1,148.5c1.1,8.5,23.8,190.5,25.3,202c-36-16.9-158.8-74.5-184.2-86.4c-28.5,13.4-151.3,71-184.2,86.4
	c0.4-3.2,23.4-187.6,25.2-201.9C122.8,361.3,30,262.3,4,234.5c17.3-3.3,59.5-11.4,101.3-19.4c41.4-7.9,82.5-15.8,98.5-18.9
	C221,165.1,286.5,46.2,302.1,17.9z"/>
</svg>
